# xmcd
#
# Track frame offsets:
# 150
# 16935
# 32750
# 54110
# 72816
# 90061
# 109051
# 128832
# 146408
# 164994
# 178558
# 207797
#
# Disc length: 2980 seconds
#
#
# Revision: 2
# Processed by: cddbd v1.4PL0 Copyright (c) Steve Scherf et al.
# Submitted via: FreeRIP 2.35 
#
DISCID=960ba20c
DTITLE=Martin Nievera - Journeys
DYEAR=1997
DGENRE=OPM
TTITLE0=Traces
TTITLE1=Above And Beyond
TTITLE2=Tears I Cried
TTITLE3=On The Wings Of Love
TTITLE4=Sweet Smile
TTITLE5=You Are My Song
TTITLE6=You
TTITLE7=Never Said Goodbye
TTITLE8=Until The End
TTITLE9=Smile
TTITLE10=What's On The Other Side
TTITLE11=All I Want (This Christmas)
EXTD=
EXTT0=
EXTT1=
EXTT2=
EXTT3=
EXTT4=
EXTT5=
EXTT6=
EXTT7=
EXTT8=
EXTT9=
EXTT10=
EXTT11=
PLAYORDER=
